# xmcd
#
# Track frame offsets: 
#        150
#        13355
#        25987
#        40180
#        54082
#        69630
#        82232
#        93835
#        106510
#        118785
#        133252
#        144749
#        158534
#        172630
#        184428
#        197290
#        207910
#        220954
#        232631
#        246640
#        258322
#        269120
#        283018
#        293400
#        306482
#
# Disc length: 4264 seconds
#
# Revision: 2
# Processed by: cddbd v1.5.2PL0 Copyright (c) Steve Scherf et al.
# Submitted via: ExactAudioCopyFreeDBPlugin 1.0
#
DISCID=6e10a619
DTITLE=Various Artist - The History Of Rhythm And Blues 1942-1952
DYEAR=2009
DGENRE=Blues
TTITLE0=Arthur Crudup - That's All Right Mama
TTITLE1=Big Joe Williams - Baby Please Don't Go
TTITLE2=Johnny Otis - Midnight In The Barrelhouse
TTITLE3=Louis Speiginer - Louie's Guitar Boogie
TTITLE4=Arthur Smith - Guitar Boogie
TTITLE5=Hank Williams - Move It On Over
TTITLE6=Lightnin' Hopkins - Let Me Play With Your Poodle
TTITLE7=John Lee 'Sonny Boy' Williamson - Shake That Boogie
TTITLE8=Muddy Waters - I Can't Be Satisfied
TTITLE9=John Lee Hooker - Boogie Chillen
TTITLE10=Jazz Gillum - You Got To Run Me Down
TTITLE11=T-Bone Walker - Call It Stormy Monday
TTITLE12=Pee Wee Crayton - Blues After Hours
TTITLE13=Paul Williams - The Twister
TTITLE14=Big Jay McNeely - Deacon's Hop
TTITLE15=Roy Milton - The Hucklebuck
TTITLE16=James Von Streeter - Landslide
TTITLE17=Louis Jordan - Pettin' and Pokin'
TTITLE18=The Big Three - After While
TTITLE19=The Trumpeteers - Milky White Way
TTITLE20=The Stars Of Harmony - Rough And Rocky Road
TTITLE21=The Dixieaires - Friends, Let Me Tell You About Jesus
TTITLE22=The Jubalaires - St Louis Blues
TTITLE23=The Ravens - Write Me A Letter
TTITLE24=The Orioles - It's Too Soon To Know
EXTD=
EXTT0=
EXTT1=
EXTT2=
EXTT3=
EXTT4=
EXTT5=
EXTT6=
EXTT7=
EXTT8=
EXTT9=
EXTT10=
EXTT11=
EXTT12=
EXTT13=
EXTT14=
EXTT15=
EXTT16=
EXTT17=
EXTT18=
EXTT19=
EXTT20=
EXTT21=
EXTT22=
EXTT23=
EXTT24=
PLAYORDER=
